<svg version="1.2" xmlns="http://www.w3.org/2000/svg" viewBox="0 0 160 178" width="160" height="178">
	<title>e0001-svg</title>
	<style>
		.s0 { fill: #0000ff } 
		.s1 { fill: #0b0bb2 } 
		.s2 { fill: #2424d0 } 
		.s3 { fill: #ffffff;stroke: #ebcdb8;stroke-miterlimit:100;stroke-width: 4.8 } 
	</style>
	<g id="Layer">
		<g id="Layer">
			<g id="Body_Parts_Characters_Book_Book_Body_0_Layer0_0_FILL">
			</g>
		</g>
		<path id="Shape 2" class="s0" d="m138.8 158.6l-17.6-3.6c0 9.4-6.7 17-15 17h-52c-8.3 0-15-7.6-15-17l-17.2 6.3c0-9.4 60.5-156.5 68.8-156.5"/>
		<path id="Shape 3" class="s1" d="m28.3 151.2l-4.6-2.5 61.6-144.7 4.6 2.5z"/>
		<path id="Shape 4" class="s1" d="m86.9 7.1l4.6-1.9 45.6 141.1-4.6 1.9z"/>
		<path id="Shape 5" class="s1" d="m134.7 149l0.2-5 17.6 0.8-0.2 5z"/>
		<path id="Shape 6" class="s1" d="m149.9 147l5 0.7-4 28.6-5-0.6z"/>
		<path id="Shape 7" class="s1" d="m26.7 144l0.2 5-19.2 0.8-0.2-5z"/>
		<path id="Shape 8" class="s1" d="m5.1 147.3h5v28.7h-5z"/>
		<path id="Shape 1" class="s2" d="m150 149v29h-141v-29z"/>
		<path id="Shape 9" class="s1" d="m6.6 178.5v-3.5h144.8v3.5z"/>
		<path id="Shape 10" class="s3" d="m120.9 73l8.1 48-94 0.8 14.8-48.8z"/>
	</g>
</svg>
